<svg id="Componente_1_1" data-name="Componente 1 – 1" xmlns="http://www.w3.org/2000/svg" width="120.637" height="104.607" viewBox="0 0 120.637 104.607">
  <path id="Trazado_184" data-name="Trazado 184" d="M134.132,3870.033l17.582-6.452L156,3853.212c5.393-12.685,16.06-12.426,17.016-12.372,8.147-.586,12.987,5.389,15.268,9.321l5.553-2.038-1.02-2.452-11.813-14.964c-4.4-6.2-8.288-5.473-8.288-5.473a10.755,10.755,0,0,0-8.432,4.625l-36.979,48.027,9.773-4.035Z" transform="translate(-112.608 -3825.207)" fill="#fff"/>
  <path id="Trazado_185" data-name="Trazado 185" d="M193.163,3844.637l13.18-3.615,3.149,7.025-7.409,1.808,1.625,2.347-4.516,1.541.467.591,5.172-1.763-1.572-2.271,7.234-1.766-3.747-8.359-14.552,3.992.626,1.5,1.634,2.072Z" transform="translate(-112.608 -3825.207)" fill="#fff"/>
  <path id="Trazado_186" data-name="Trazado 186" d="M191.162,3856.481l.278.656,8.219-2.8-.467-.592Z" transform="translate(-112.608 -3825.207)" fill="#fff"/>
  <path id="Trazado_187" data-name="Trazado 187" d="M190.885,3855.825l.278.656,8.029-2.739-.467-.591Z" transform="translate(-112.608 -3825.207)" fill="#fff"/>
  <path id="Trazado_188" data-name="Trazado 188" d="M195.477,3849.037l-1.023-1.3.33.792-6.144,2.256q.18.331.333.634Z" transform="translate(-112.608 -3825.207)" fill="#fff"/>
  <path id="Trazado_189" data-name="Trazado 189" d="M141.632,3872.623l-.877.3,2.356,3.509-16.479,3.272,12.717-5.25-2.9-3.755,14.527-5.331.369-.892-16.054,5.891,2.925,3.786-11.775,4.861-1.32,1.715,19.178-3.808-2.434-3.626,6.789-2.315.362-.874Z" transform="translate(-112.608 -3825.207)" fill="#fff"/>
  <path id="Trazado_190" data-name="Trazado 190" d="M126.44,3879.013l.868-1.127-7.919,3.269.414,1.353,4.658-.925.658-.855Z" transform="translate(-112.608 -3825.207)" fill="#fff"/>
  <path id="Trazado_191" data-name="Trazado 191" d="M157.538,3881.1l-.307.71h.778l.307-.71Z" transform="translate(-112.608 -3825.207)" fill="#fff"/>
  <path id="Trazado_192" data-name="Trazado 192" d="M232.268,3895.643l-32.609-41.309-8.219,2.8-.677.231-.677.23,9.938,23.5H187.712l-2.482-6.24c-.174.2-.351.4-.533.594s-.361.376-.547.556l2.024,5.09.282.711H157.231l.307-.711H146.014l4.078-9.861.362-.874.361-.874,1.983-4.794.369-.892-.912.334-.368.893-.912.335-1.959,4.737-.362.875-6.789,2.315,2.434,3.625-19.179,3.808-.658.855-10.846,14.086c-1.857,2.928-.58,4.638-.58,4.638.7,2.2,3.951,2.809,3.951,2.809H228.554a4.6,4.6,0,0,0,4.5-3.119,4.911,4.911,0,0,0-.787-4.354m-22.061-3.913H133.789v-7.494h76.418Z" transform="translate(-112.608 -3825.207)" fill="#fff"/>
  <path id="Trazado_193" data-name="Trazado 193" d="M138.215,3874.152l-2.925-3.786,16.054-5.891.37-.893-17.582,6.451,2.949,3.818-9.773,4.035-.868,1.127Z" transform="translate(-112.608 -3825.207)" fill="#fff"/>
  <path id="Trazado_194" data-name="Trazado 194" d="M194.784,3848.534l-.329-.792-1.635-2.071,1.02,2.452-5.554,2.038c.126.216.244.427.354.628Z" transform="translate(-112.608 -3825.207)" fill="#fff"/>
  <path id="Trazado_195" data-name="Trazado 195" d="M195.729,3848.945l-1.6-3.837,11.808-3.239,2.551,5.691-7.583,1.85,1.678,2.425-3.861,1.316.467.592,4.516-1.54-1.625-2.347,7.409-1.808-3.149-7.025-13.18,3.615,1.291,3.1,1.023,1.294Z" transform="translate(-112.608 -3825.207)" fill="#fff"/>
  <path id="Trazado_196" data-name="Trazado 196" d="M189.21,3853.694l1,2.361.677-.229-1-2.366a19.721,19.721,0,0,0-.912-2.036l-.663.243a18.723,18.723,0,0,1,.9,2.027" transform="translate(-112.608 -3825.207)" fill="#fff"/>
  <path id="Trazado_197" data-name="Trazado 197" d="M150.975,3865.367l.911-.334.369-.893.912-.334.369-.893-.911.334-.911.335-.37.893Z" transform="translate(-112.608 -3825.207)" fill="#fff"/>
  <path id="Trazado_198" data-name="Trazado 198" d="M190.486,3856.712l-.678.231.278.656.678-.232.676-.23-.278-.657-.277-.656-.677.23Z" transform="translate(-112.608 -3825.207)" fill="#fff"/>
  <path id="Trazado_199" data-name="Trazado 199" d="M153.536,3862.913l3.787-9.155c5.2-12.226,15.215-11.533,15.638-11.5l.059,0,.056,0c7.274-.531,11.692,4.754,13.852,8.4l.7-.256.662-.243c-2.28-3.932-7.12-9.907-15.267-9.322-.956-.054-11.624-.312-17.017,12.373l-4.288,10.37.911-.335Z" transform="translate(-112.608 -3825.207)" fill="#fff"/>
  <path id="Trazado_200" data-name="Trazado 200" d="M186.928,3850.66c.127.214.247.424.359.626q.183.33.337.632a19.129,19.129,0,0,1,.927,2.05l.98,2.319.678-.231-1-2.362a18.723,18.723,0,0,0-.9-2.027l.663-.243q-.153-.3-.333-.635c-.11-.2-.228-.412-.354-.628l-.662.243Z" transform="translate(-112.608 -3825.207)" fill="#fff"/>
  <path id="Trazado_201" data-name="Trazado 201" d="M190.486,3856.712l-.278-.657-.678.232.278.656Z" transform="translate(-112.608 -3825.207)" fill="#fff"/>
  <path id="Trazado_202" data-name="Trazado 202" d="M157.348,3868.765a17.476,17.476,0,0,0,2.623,4.9l.33-.762a16.822,16.822,0,0,1-2.274-4.365Z" transform="translate(-112.608 -3825.207)" fill="#fff"/>
  <path id="Trazado_203" data-name="Trazado 203" d="M172.636,3846.324A15.12,15.12,0,0,1,184.1,3851.7l.719-.264a15.85,15.85,0,0,0-12.186-5.82c-8.678,0-15.769,7.192-16.249,16.254l.733-.269c.6-8.529,7.331-15.274,15.516-15.274" transform="translate(-112.608 -3825.207)" fill="#fff"/>
  <path id="Trazado_204" data-name="Trazado 204" d="M156.369,3863.388a18.19,18.19,0,0,0,.569,4.015l.68-.232a17.386,17.386,0,0,1-.539-4.043Z" transform="translate(-112.608 -3825.207)" fill="#fff"/>
  <path id="Trazado_205" data-name="Trazado 205" d="M188.982,3857.976c-.062-.23-.128-.457-.2-.683s-.144-.452-.223-.675a18.18,18.18,0,0,0-2.151-4.253q-.209-.306-.427-.6c-.15-.2-.3-.4-.46-.589a16.589,16.589,0,0,0-12.887-6.271c-9.143,0-16.62,7.665-16.976,17.229-.008.237-.014.474-.014.713v.05c0,.251.007.5.018.751a18.726,18.726,0,0,0,.6,3.987q.09.345.194.685c.069.227.142.453.219.676a18.2,18.2,0,0,0,2.978,5.4l-2.893,6.7h.778l2.628-6.09q.258.294.528.576l.3-.7.313-.726c-.176-.2-.347-.4-.514-.608l3.016-6.988.908-.31.381-.88.38-.881-.908.31,2.267-5.253-.924.339-2.256,5.225-.38.881-.379.88-2.6,6.027-.329.762a17.5,17.5,0,0,1-2.624-4.9l.68-.231q-.115-.336-.218-.676t-.191-.687l-.68.232a18.072,18.072,0,0,1-.568-4.015l.709-.26c0-.094,0-.188,0-.282,0-.159,0-.318.007-.477q.011-.387.037-.771l-.732.268c.48-9.06,7.571-16.253,16.249-16.253a15.85,15.85,0,0,1,12.186,5.82l-.719.264c.163.189.323.383.478.582s.3.392.445.593a16.868,16.868,0,0,1,2.184,4.207q.117.334.221.675c.07.226.134.454.194.685l.681-.232a18.233,18.233,0,0,1,.6,4.639,17.746,17.746,0,0,1-3.969,11.271l-.306-.77c-.168.215-.34.426-.518.631s-.352.4-.534.59l.292.734.282.71c.186-.181.369-.367.547-.557s.359-.392.533-.594a18.43,18.43,0,0,0,4.387-12.015,18.85,18.85,0,0,0-.635-4.87" transform="translate(-112.608 -3825.207)" fill="#fff"/>
  <path id="Trazado_206" data-name="Trazado 206" d="M168.148,3858.309l.388-.9-.919.336.5-1.169a4.909,4.909,0,0,1,4.878-3.268,4.329,4.329,0,0,1,3,1.361l-.746.274a4.234,4.234,0,0,1,.529.563,4.868,4.868,0,0,1,.4.61l.678-.249a6.426,6.426,0,0,1,.283.6l1.416,3.561-.677.231.263.662.263.66.677-.231.676-.231-.263-.66-.262-.662-1.431-3.6c-.085-.205-.175-.4-.269-.58a6.779,6.779,0,0,0-.362-.624,6.2,6.2,0,0,0-.449-.593,5.035,5.035,0,0,0-3.721-1.8h-.084a5.592,5.592,0,0,0-5.458,3.7l-.773,1.789-.388.9.924-.339-.388.9.919-.338Z" transform="translate(-112.608 -3825.207)" fill="#fff"/>
  <path id="Trazado_207" data-name="Trazado 207" d="M184.628,3873.347l.306.771a17.756,17.756,0,0,0,3.968-11.272,18.2,18.2,0,0,0-.6-4.64l-.68.232a17.46,17.46,0,0,1,.563,4.408,17.058,17.058,0,0,1-3.56,10.5" transform="translate(-112.608 -3825.207)" fill="#fff"/>
  <path id="Trazado_208" data-name="Trazado 208" d="M179.089,3861.35l-.677.231,5.164,12.988q.274-.29.534-.591t.518-.631l-4.863-12.228Z" transform="translate(-112.608 -3825.207)" fill="#fff"/>
  <path id="Trazado_209" data-name="Trazado 209" d="M166.3,3858.985l-.388.9.924-.339.389-.9Z" transform="translate(-112.608 -3825.207)" fill="#fff"/>
  <path id="Trazado_210" data-name="Trazado 210" d="M160.694,3875.587q-.27-.282-.528-.576l-2.628,6.09h.777Z" transform="translate(-112.608 -3825.207)" fill="#fff"/>
  <path id="Trazado_211" data-name="Trazado 211" d="M163.814,3866.56l-3.016,6.988q.249.312.514.608l3.41-7.906Z" transform="translate(-112.608 -3825.207)" fill="#fff"/>
  <path id="Trazado_212" data-name="Trazado 212" d="M173,3853.308a4.907,4.907,0,0,0-4.877,3.268l-.505,1.169.918-.336.272-.631a4.221,4.221,0,0,1,4.149-2.76h.067a3.58,3.58,0,0,1,2.231.924l.746-.274a4.329,4.329,0,0,0-3-1.361" transform="translate(-112.608 -3825.207)" fill="#fff"/>
  <path id="Trazado_213" data-name="Trazado 213" d="M166.841,3859.546l-2.267,5.253.908-.31,2.278-5.281Z" transform="translate(-112.608 -3825.207)" fill="#fff"/>
  <path id="Trazado_214" data-name="Trazado 214" d="M177.147,3856.467a6.426,6.426,0,0,0-.283-.6l-.678.249a5.437,5.437,0,0,1,.3.612l1.4,3.53.677-.23Z" transform="translate(-112.608 -3825.207)" fill="#fff"/>
  <path id="Trazado_215" data-name="Trazado 215" d="M177.18,3861.251a5.218,5.218,0,0,0-.254-.665,4.762,4.762,0,0,0-4.29-2.8,4.881,4.881,0,0,0-4.774,4.972,5.315,5.315,0,0,0,.078.9,5.471,5.471,0,0,0,.173.692,5.07,5.07,0,0,0,.268.659,4.762,4.762,0,0,0,4.255,2.721,4.878,4.878,0,0,0,4.767-4.97,5.217,5.217,0,0,0-.064-.806,5.138,5.138,0,0,0-.159-.7m-4.544,5.051a3.317,3.317,0,0,1-2.89-1.765,3.633,3.633,0,0,1-.281-.655,3.8,3.8,0,0,1-.174-1.129,3.458,3.458,0,0,1,3.345-3.552,3.317,3.317,0,0,1,2.928,1.85,3.657,3.657,0,0,1,.263.661,3.812,3.812,0,0,1,.131.706q.015.165.015.335a3.452,3.452,0,0,1-3.337,3.549" transform="translate(-112.608 -3825.207)" fill="#fff"/>
  <path id="Trazado_216" data-name="Trazado 216" d="M127.875,3921.167H137.6v-3.179h-9.729V3913.8h10.454v-3.19H123.964v18.866H138.7V3926.3H127.875Z" transform="translate(-112.608 -3825.207)" fill="#fff"/>
  <path id="Trazado_217" data-name="Trazado 217" d="M147.878,3921.167h9.728v-3.179h-9.728V3913.8h10.454v-3.19H143.968v18.866H158.7V3926.3H147.878Z" transform="translate(-112.608 -3825.207)" fill="#fff"/>
  <path id="Trazado_218" data-name="Trazado 218" d="M169.547,3910.614,162,3929.48h4.151l1.6-4.286h7.745l1.691,4.286h4.256l-7.758-18.866Zm-.593,11.4,2.613-7,2.672,7Z" transform="translate(-112.608 -3825.207)" fill="#fff"/>
  <path id="Trazado_219" data-name="Trazado 219" d="M197.313,3919.061a19.247,19.247,0,0,0-4.222-1.356,10.514,10.514,0,0,1-3.594-1.261,1.436,1.436,0,0,1-.584-1.146,1.37,1.37,0,0,1,.623-1.172,4.564,4.564,0,0,1,2.668-.681,4.031,4.031,0,0,1,2.479.637,3.209,3.209,0,0,1,1.078,2.09l3.911-.167a5.427,5.427,0,0,0-1.937-4.156,8.323,8.323,0,0,0-5.489-1.558,9.916,9.916,0,0,0-3.814.657,5.233,5.233,0,0,0-2.42,1.912,4.755,4.755,0,0,0-.838,2.7,4.854,4.854,0,0,0,1.785,3.8,10.771,10.771,0,0,0,4.412,1.865c1.632.4,2.674.671,3.135.824a3.24,3.24,0,0,1,1.406.816,1.693,1.693,0,0,1,.4,1.14,2.3,2.3,0,0,1-.958,1.821,4.441,4.441,0,0,1-2.848.779,4.3,4.3,0,0,1-2.836-.874,4.508,4.508,0,0,1-1.4-2.742l-3.8.361a7.129,7.129,0,0,0,2.351,4.819,8.561,8.561,0,0,0,5.646,1.653,11.27,11.27,0,0,0,4.217-.687,5.527,5.527,0,0,0,2.616-2.1,5.389,5.389,0,0,0-1.99-7.961" transform="translate(-112.608 -3825.207)" fill="#fff"/>
  <path id="Trazado_220" data-name="Trazado 220" d="M211.045,3910.614,203.5,3929.48h4.15l1.6-4.286h7.745l1.692,4.286h4.255l-7.756-18.866Zm-.6,11.4,2.615-7,2.671,7Z" transform="translate(-112.608 -3825.207)" fill="#fff"/>
</svg>
